<?xml version="1.0"?>
<svg xmlns="http://www.w3.org/2000/svg" id="Layer_1" enable-background="new 0 0 455.045 455.045" height="512px"
     viewBox="0 0 455.045 455.045" width="512px" class="">
    <g>
        <path d="m342.955 121.603c-.934-1.827-1.1-3.95-.512-5.916 13.903-46.473 52.787-75.976 97.991-81.07 6.895-.777 11.45 7.065 7.341 12.656-28.139 38.285-25.055 87.17 5.366 122.871 3.074 3.608 2.342 9.113-1.59 11.76-41.24 27.771-63.991 75.776-59.145 125.418.446 4.57-2.964 8.599-7.551 8.826-65.987 3.265-122.145 41.983-150.15 99.839-2.903 5.997-11.464 5.997-14.367 0-28.006-57.855-84.164-96.574-150.15-99.839-4.586-.227-7.997-4.255-7.551-8.825 4.852-49.696-17.948-97.679-59.143-125.418-3.932-2.648-4.665-8.153-1.591-11.761 30.366-35.636 33.554-84.524 5.365-122.874-4.109-5.591.446-13.432 7.341-12.656 45.249 5.093 84.104 34.65 97.992 81.073.589 1.969.42 4.095-.516 5.924-12.761 24.946-12.543 55.564 4.557 80.983 18.92 27.33 61.8 16.03 65.47-17l1.894-17.037c.734-6.599 8.74-9.501 13.498-4.87 16.757 16.309 43.277 16.311 60.036 0 4.758-4.631 12.765-1.729 13.498 4.87l1.894 17.037c3.661 32.951 47.153 45.274 66.59 15.33 15.302-23.425 16.494-53.784 3.433-79.321z"
              fill="#42434d" data-original="#42434D" class="" style="fill:#C12020" data-old_color="#42434d"/>
        <path d="m206.522 233.924c-4.418 0-8-3.582-8-8v-6c0-4.418 3.582-8 8-8s8 3.582 8 8v6c0 4.419-3.582 8-8 8z"
              fill="#fff" data-original="#FFF" class="active-path" data-old_color="#fff" style="fill:#FFFFFF"/>
        <path d="m248.522 233.924c-4.418 0-8-3.582-8-8v-6c0-4.418 3.582-8 8-8s8 3.582 8 8v6c0 4.419-3.582 8-8 8z"
              fill="#fff" data-original="#FFF" class="active-path" data-old_color="#fff" style="fill:#FFFFFF"/>
        <g fill="#4d4e59">
            <path d="m440.432 34.614c6.9-.77 11.45 7.07 7.34 12.66-1.946 2.647-4.615 4.388-7.614 5.186-21.335 5.68-40.302 16.997-54.927 32.896-17.418 18.935-23.651 45.38-17.92 70.461 5.047 22.086.734 42.728-10.288 59.607-1.72 2.649-3.627 4.966-5.679 6.969-10.465 10.212-25.961-5.225-16.061-15.985 14.776-16.058 24.728-51.446 7.67-84.804-.93-1.83-1.1-3.95-.51-5.92 13.899-46.47 52.789-75.97 97.989-81.07z"
                  data-original="#4D4E59" class="" data-old_color="#4D4E59" style="fill:#FB5252"/>
            <path d="m198.499 164.623c2.507 2.287 3.294 5.806 2.41 9.082-.27 1-.16.566-2.127 18.29-1.962 17.667-15.147 29.118-29.882 31.763-6.586 1.182-9.868-7.655-4.114-11.071 9.067-5.383 15.951-14.71 17.326-27.092l1.89-17.04c.74-6.6 8.74-9.5 13.5-4.87.328.318.66.63.997.938z"
                  data-original="#4D4E59" class="" data-old_color="#4D4E59" style="fill:#FB5252"/>
            <path d="m91.182 311.455c-.313 3.69-3.605 6.356-7.279 5.892-4.518-.57-9.091-.973-13.711-1.203-4.59-.22-8-4.25-7.55-8.82 4.85-49.7-17.95-97.68-59.15-125.42-3.93-2.65-4.66-8.15-1.59-11.76 30.375-35.654 33.548-84.502 5.37-122.87-4.11-5.6.44-13.44 7.34-12.66.739.083 1.477.172 2.212.268 7.519.981 13.851 5.598 17.796 12.074.129.212.27.421.422.628 20.145 27.423 24.837 60.883 13.981 91.338-9.044 25.373-4.188 53.426 12.853 74.286 23.619 28.912 32.354 62.309 29.306 98.247z"
                  data-original="#4D4E59" class="" data-old_color="#4D4E59" style="fill:#FB5252"/>
        </g>
    </g>
</svg>
