<?xml version="1.0"?>
<svg xmlns="http://www.w3.org/2000/svg" height="512px" viewBox="0 0 36 60" width="512px" class="">
    <g>
        <g id="Page-1" fill="none" fill-rule="evenodd">
            <g id="018---Gloves" fill-rule="nonzero">
                <path id="Shape"
                      d="m14.938 18.549c-.1319265-.0000752-.2624993-.0265978-.384-.078-.5092385-.2125965-.750009-.7975166-.538-1.307l4.561-10.949c.1375472-.32975614.440569-.5610828.7949198-.60684146s.7061964.10100251.923.385.2656275.66208532.1280802.99184146l-4.562 10.948c-.1550677.3728624-.5191778.6158655-.923.616z"
                      fill="#cf976a" data-original="#CF976A" class=""/>
                <path id="Shape"
                      d="m28.914 24.35c-.4125235-.0000735-.7826665-.2534547-.932-.638l-6.494-16.7c-.1880962-.51170623.0683429-1.07978142.5765369-1.27717008.5081941-.19738866 1.0808475.04865703 1.2874631.55317008l6.494 16.7c.1198862.3077373.0800979.6548211-.1063185.9274451s-.4954165.4356245-.8256815.4355549z"
                      fill="#cf976a" data-original="#CF976A" class=""/>
                <path id="Shape"
                      d="m34.06 42.29c.1316381-.4265251.2187691-.8655315.26-1.31.3372245-2.4165668-.2955049-4.8683931-1.76-6.82-.1031088-.1231163-.2168837-.2368912-.34-.34 0-.01 0-.01-.01-.01-.1833702-.1946445-.384212-.3720548-.6-.53-.0346178-.0324204-.0713666-.0624876-.11-.09v-8.19c0-2.209139-1.790861-4-4-4h-6.5v-2c0-2.209139-1.790861-4-4-4h-7c-2.209139 0-4 1.790861-4 4v9.36c-.29734074.2407667-.58110922.4978275-.85.77-.11.11-.22.22-.32.33-1.03590743 1.091996-1.85989236 2.3669685-2.43 3.76-.70528194 1.8609295-1.17558231 3.8025982-1.4 5.78-.22655141 1.5805169-.25007551 3.1835158-.07 4.77.00169498.0803367.00837448.1604908.02.24v.07c1.16 8.79 9.04 12.09 15.23 10.62.07 1.44 1.08 4.44 8.26 4.36 8.27-.11 10.49-4.71 10.62-6.75h.01c.5632774-3.3702935.2145529-6.8299169-1.01-10.02z"
                      fill="#e64c3c" data-original="#E64C3C" class="" style="fill:#C60000" data-old_color="#e64c3c"/>
                <path id="Shape"
                      d="m35.07 52.31h-.01c.0205918-.2350474.0002914-.4718854-.06-.7-1.2955896-2.3643771-3.5742948-4.0312755-6.22-4.55-2.1168134-.233973-4.2242612.5139499-5.72 2.03.81-2.75-.98-5.07-2.88-4.78-.18-.31-.36-.61-.55-.9-.02-.03-.05-.07-.07-.1.2608102.0939545.533423.1511696.81.17 1.92-.03 2.64-1.92 2.87-3.54.2717202-2.2668148.088132-4.5650668-.54-6.76-.3710947-1.3453995-.9442921-2.6266643-1.7-3.8v-8.38h6.5c2.209139 0 4 1.790861 4 4v8.19c.0386334.0275124.0753822.0575796.11.09.215788.1579452.4166298.3353555.6.53.01 0 .01 0 .01.01.1231163.1031088.2368912.2168837.34.34 1.4644951 1.9516069 2.0972245 4.4034332 1.76 6.82-.0412309.4444685-.1283619.8834749-.26 1.31 1.2245529 3.1900831 1.5732774 6.6497065 1.01 10.02z"
                      fill="#3b97d3" data-original="#3B97D3" class="active-path" style="fill:#009E00"
                      data-old_color="#3b97d3"/>
                <path id="Shape"
                      d="m19.56 43.31c-3.4-1.11-2.92-7.23-2.26-10.76.0994113-.5440005-.2609995-1.0655887-.805-1.165s-1.0655887.2609995-1.165.805c-.06.32-.13.75-.2 1.24-.7840869-.512039-1.6355766-.9125421-2.53-1.19-.3531003-.1423486-.7563984-.0718491-1.0402673.1818464s-.3990575.6465708-.2971175 1.0133831c.1019399.3668122.4033219.6439194.7773848.7147705 1.0479587.323661 2.0087687.8809992 2.81 1.63-.0666185.9222611-.0632756 1.8482439.01 2.77-6.84-4.17-13.93 1.54-13.93 5.22.00169498.0803367.00837448.1604908.02.24v.07c1.16 8.79 9.04 12.09 15.23 10.62 1.3703894-.3169907 2.667188-.8941 3.82-1.7 1.4326045-.9200211 2.5112385-2.2982756 3.06-3.91.81-2.75-.86-4.96-3.5-5.78z"
                      fill="#c03a2b" data-original="#C03A2B" class="" style="fill:#9B0000" data-old_color="#c03a2b"/>
                <path id="Shape"
                      d="m35.06 52.31c-.13 2.04-2.35 6.64-10.62 6.75-7.18.08-8.19-2.92-8.26-4.36 1.3703894-.3169907 2.667188-.8941 3.82-1.7 1.4326045-.9200211 2.5112385-2.2982756 3.06-3.91.8881096-.8256574 1.9462145-1.4468674 3.1-1.82-.4382787-.6590559-.6809742-1.4287473-.7-2.22-.03-2.54 2.12-4.59 3.05-5.36.2718117-.2541834.6622878-.3364045 1.0135198-.2134132.3512319.1229914.6051139.4308483.658976.7990733.053862.368225-.1012065.7359011-.4024958.9543399-1.47 1.22-2.34 2.63-2.32 3.79.0491495 1.0130077.7560232 1.8742561 1.74 2.12 2.453.407 5.351 3.088 5.8 4.47.0602914.2281146.0805918.4649526.06.7z"
                      fill="#2980ba" data-original="#2980BA" class="" style="fill:#007C00" data-old_color="#2980ba"/>
                <path id="Shape"
                      d="m21 8c-2.209139 0-4-1.790861-4-4s1.790861-4 4-4 4 1.790861 4 4c0 1.06086596-.4214274 2.07828161-1.1715729 2.82842712-.7501455.75014552-1.7675611 1.17157288-2.8284271 1.17157288zm0-6c-1.1045695 0-2 .8954305-2 2s.8954305 2 2 2 2-.8954305 2-2c0-.53043298-.2107137-1.03914081-.5857864-1.41421356-.3750728-.37507276-.8837806-.58578644-1.4142136-.58578644z"
                      fill="#bdc3c7" data-original="#BDC3C7" class=""/>
                <path id="Shape"
                      d="m9.31 26.62c-1.22993066.2981916-2.36702246.8959378-3.31 1.74v-2.38c.84044551-.5178527 1.73596905-.9404593 2.67-1.26.33940231-.114325.71401464-.0388967.98272414.1978719.26870951.2367685.39069286.5989065.32000001.95-.07069282.3510935-.32332183.6378031-.66272415.7521281z"
                      fill="#c03a2b" data-original="#C03A2B" class="" style="fill:#9B0000" data-old_color="#c03a2b"/>
                <path id="Shape"
                      d="m15.1 23.43c2.2138093.249183 4.2855861 1.2148416 5.9 2.75v3.17c-1.3066686-2.215123-3.5908937-3.6747986-6.15-3.93-.5495233-.0690356-.9390356-.5704767-.87-1.12s.5704767-.9390356 1.12-.87z"
                      fill="#c03a2b" data-original="#C03A2B" class="" style="fill:#9B0000" data-old_color="#c03a2b"/>
                <path id="Shape"
                      d="m31.5 30.85v2.34c-1.3715421-.9371449-2.9800403-1.4675333-4.64-1.53-.3638631-.0234513-.6861218-.243087-.8409933-.5731796s-.117805-.718315.0967317-1.0131375c.2145368-.2948225.5725348-.449509.9342616-.4036829 1.5443046.1102043 3.0539959.510527 4.45 1.18z"
                      fill="#2980ba" data-original="#2980BA" class="" style="fill:#007C00" data-old_color="#2980ba"/>
                <path id="Shape"
                      d="m13.277 52.047c-1.3634764.0001629-2.7126529-.2778389-3.965-.817-2.97219514-1.2761262-5.01975129-4.0623335-5.35-7.28-.06823469-.3596368.06548255-.7278157.34860205-.9598458.28311951-.2320301.67039076-.2908263 1.00961969-.1532824.33922893.137544.57619712.4494448.61777826.8131282.24407003 2.5307051 1.84000542 4.73057 4.17 5.748 1.001186.4298813 2.0794261.6513816 3.169.651.5522847 0 1 .4477153 1 1s-.4477153 1-1 1z"
                      fill="#fff" data-original="#FFF" class="" data-old_color="#fff" style="fill:#C12020"/>
            </g>
        </g>
    </g>
</svg>
