<?xml version="1.0"?>
<svg xmlns="http://www.w3.org/2000/svg" id="Layer_1" height="512px" viewBox="0 0 128 128" width="512px"
     data-name="Layer 1" class="">
    <g>
        <path d="m73.2 34.078-9.2 9.2-9.2-9.2a19.974 19.974 0 0 0 -28.246 28.248l37.446 37.446 37.446-37.446a19.974 19.974 0 0 0 -28.246-28.248z"
              fill="#fc3e81" data-original="#FC3E81" style="fill:#00CC00" class="" data-old_color="#fc3e81"/>
        <path d="m113.854 64.046h-36.021a1.751 1.751 0 0 0 -1.552.942l-2.7 5.188-4.82-12.643a1.751 1.751 0 0 0 -1.636-1.127h-.009a1.751 1.751 0 0 0 -1.633 1.142l-5.31 14.357-5.217-20.378a1.75 1.75 0 0 0 -3.328-.2l-4.9 12.714h-32.582a1.75 1.75 0 0 0 0 3.5h33.784a1.748 1.748 0 0 0 1.632-1.12l3.362-8.721 5.249 20.5a1.75 1.75 0 0 0 1.6 1.313h.092a1.75 1.75 0 0 0 1.641-1.142l5.639-15.245 4.544 11.929a1.753 1.753 0 0 0 1.535 1.124 1.729 1.729 0 0 0 1.653-.939l4.014-7.7h34.959a1.75 1.75 0 0 0 0-3.5z"
              fill="#e7ffff" data-original="#E7FFFF" class="active-path" style="fill:#E7FFFF" data-old_color="#e7ffff"/>
    </g>
</svg>
