<?xml version="1.0"?>
<svg xmlns="http://www.w3.org/2000/svg" id="Layer_1" enable-background="new 0 0 480 480" height="512px"
     viewBox="0 0 480 480" width="512px" class="">
    <g>
        <g fill="#ff6d7a">
            <path d="m8 270c-4.4 0-8-3.6-8-8v-44c0-4.4 3.6-8 8-8s8 3.6 8 8v44c0 4.4-3.6 8-8 8z" data-original="#FF6D7A"
                  class="" style="fill:#735AC4" data-old_color="#FF6D7A"/>
            <path d="m472 270c-4.4 0-8-3.6-8-8v-44c0-4.4 3.6-8 8-8s8 3.6 8 8v44c0 4.4-3.6 8-8 8z"
                  data-original="#FF6D7A" class="" style="fill:#735AC4" data-old_color="#FF6D7A"/>
            <path d="m262 480h-44c-4.4 0-8-3.6-8-8s3.6-8 8-8h44c4.4 0 8 3.6 8 8s-3.6 8-8 8z" data-original="#FF6D7A"
                  class="" style="fill:#735AC4" data-old_color="#FF6D7A"/>
            <path d="m262 16h-44c-4.4 0-8-3.6-8-8s3.6-8 8-8h44c4.4 0 8 3.6 8 8s-3.6 8-8 8z" data-original="#FF6D7A"
                  class="" style="fill:#735AC4" data-old_color="#FF6D7A"/>
        </g>
        <path d="m240 75c-4.4 0-8-3.6-8-8v-28c0-4.4 3.6-8 8-8s8 3.6 8 8v28c0 4.4-3.6 8-8 8z" fill="#e84857"
              data-original="#E84857" class="" style="fill:#3914AF" data-old_color="#e84857"/>
        <path d="m240 449c-4.4 0-8-3.6-8-8v-28c0-4.4 3.6-8 8-8s8 3.6 8 8v28c0 4.4-3.6 8-8 8z" fill="#e84857"
              data-original="#E84857" class="" style="fill:#3914AF" data-old_color="#e84857"/>
        <path d="m441 248h-28c-4.4 0-8-3.6-8-8s3.6-8 8-8h28c4.4 0 8 3.6 8 8s-3.6 8-8 8z" fill="#e84857"
              data-original="#E84857" class="" style="fill:#3914AF" data-old_color="#e84857"/>
        <path d="m67 248h-28c-4.4 0-8-3.6-8-8s3.6-8 8-8h28c4.4 0 8 3.6 8 8s-3.6 8-8 8z" fill="#e84857"
              data-original="#E84857" class="" style="fill:#3914AF" data-old_color="#e84857"/>
        <path d="m54.7 97.2c-3.1-3.1-3.1-8.2 0-11.3l31.1-31.1c3.1-3.1 8.2-3.1 11.3 0s3.1 8.2 0 11.3l-31.1 31.1c-3.1 3.1-8.1 3.1-11.3 0z"
              fill="#ff6d7a" data-original="#FF6D7A" class="" style="fill:#735AC4" data-old_color="#ff6d7a"/>
        <path d="m382.8 425.3c-3.1-3.1-3.1-8.2 0-11.3l31.1-31.1c3.1-3.1 8.2-3.1 11.3 0s3.1 8.2 0 11.3l-31.1 31.1c-3.1 3.1-8.1 3.1-11.3 0z"
              fill="#ff6d7a" data-original="#FF6D7A" class="" style="fill:#735AC4" data-old_color="#ff6d7a"/>
        <path d="m85.9 425.3-31.1-31.1c-3.1-3.1-3.1-8.2 0-11.3s8.2-3.1 11.3 0l31.1 31.1c3.1 3.1 3.1 8.2 0 11.3-3.2 3.1-8.2 3.1-11.3 0z"
              fill="#ff6d7a" data-original="#FF6D7A" class="" style="fill:#735AC4" data-old_color="#ff6d7a"/>
        <path d="m414 97.2-31.2-31.2c-3.1-3.1-3.1-8.2 0-11.3s8.2-3.1 11.3 0l31.1 31.1c3.1 3.1 3.1 8.2 0 11.3-3.1 3.2-8.1 3.2-11.2.1z"
              fill="#ff6d7a" data-original="#FF6D7A" class="" style="fill:#735AC4" data-old_color="#ff6d7a"/>
        <path d="m356.7 123.3c-3.1-3.1-3.1-8.2 0-11.3l19.8-19.8c3.1-3.1 8.2-3.1 11.3 0s3.1 8.2 0 11.3l-19.8 19.8c-3.1 3.2-8.2 3.1-11.3 0z"
              fill="#e84857" data-original="#E84857" class="" style="fill:#3914AF" data-old_color="#e84857"/>
        <path d="m92.2 387.8c-3.1-3.1-3.1-8.2 0-11.3l19.8-19.8c3.1-3.1 8.2-3.1 11.3 0s3.1 8.2 0 11.3l-19.8 19.8c-3.1 3.1-8.2 3.1-11.3 0z"
              fill="#e84857" data-original="#E84857" class="" style="fill:#3914AF" data-old_color="#e84857"/>
        <path d="m376.5 387.8-19.8-19.8c-3.1-3.1-3.1-8.2 0-11.3s8.2-3.1 11.3 0l19.8 19.8c3.1 3.1 3.1 8.2 0 11.3s-8.2 3.1-11.3 0z"
              fill="#e84857" data-original="#E84857" class="" style="fill:#3914AF" data-old_color="#e84857"/>
        <path d="m112 123.3-19.8-19.8c-3.1-3.1-3.1-8.2 0-11.3s8.2-3.1 11.3 0l19.8 19.8c3.1 3.1 3.1 8.2 0 11.3-3.1 3.2-8.2 3.1-11.3 0z"
              fill="#e84857" data-original="#E84857" class="" style="fill:#3914AF" data-old_color="#e84857"/>
        <path d="m362.3 117.7c67.5 67.5 67.6 177 0 244.7-67.5 67.5-177 67.6-244.7 0-67.5-67.5-67.6-177 0-244.7 67.6-67.5 177.1-67.7 244.7 0z"
              fill="#fe4f60" data-original="#FE4F60" class="" style="fill:#5639B5" data-old_color="#fe4f60"/>
        <path d="m305.7 143.8c15.2 0 27.8 12.5 27.8 27.8s-12.5 27.8-27.8 27.8c-15.2 0-27.8-12.5-27.8-27.8s12.6-27.8 27.8-27.8z"
              fill="#e84857" data-original="#E84857" class="" style="fill:#3914AF" data-old_color="#e84857"/>
        <circle cx="180.8" cy="314" fill="#e84857" r="20.4" data-original="#E84857" class="" style="fill:#3914AF"
                data-old_color="#e84857"/>
        <path d="m302 253.9c25.9 0 47.2 21.3 47.2 47.2s-21.3 47.2-47.2 47.2-47.2-21.3-47.2-47.2 21.3-47.2 47.2-47.2z"
              fill="#e84857" data-original="#E84857" class="" style="fill:#3914AF" data-old_color="#e84857"/>
        <path d="m224.1 67.7c35.1-3.2 45.4 46.9 11.9 57.9-52.1 17.1-93.2 58.2-110.3 110.3-11 33.5-61.1 23.3-57.9-11.9 7.5-82.8 73.4-148.8 156.3-156.3z"
              fill="#ff6d7a" data-original="#FF6D7A" class="" style="fill:#735AC4" data-old_color="#ff6d7a"/>
        <ellipse cx="171.7" cy="185.5" fill="#e84857" rx="47.2" ry="47.2"
                 transform="matrix(.071 -.998 .998 .071 -25.504 343.599)" data-original="#E84857" class=""
                 style="fill:#3914AF" data-old_color="#e84857"/>
        <path d="m195.7 144.9c6.3 3.7 3.6 13.4-3.7 13.3-24.9-.1-47.6 20.2-47.4 47.5 0 7.4-9.6 10.1-13.3 3.8-18.9-31.6 4.5-71.2 40.5-71.2 8.6 0 16.8 2.4 23.9 6.6z"
              fill="#cc3b4d" data-original="#CC3B4D" class="active-path" style="fill:#2B0F88" data-old_color="#cc3b4d"/>
        <path d="m308.3 157.4c-7.6 2.9-13.8 9-16.7 16.6-2.7 7.2-13.6 5.7-13.6-2.5 0-15.4 12.8-28 28.2-27.7 7.7.1 9.4 10.9 2.1 13.6z"
              fill="#cc3b4d" data-original="#CC3B4D" class="active-path" style="fill:#2B0F88" data-old_color="#cc3b4d"/>
        <path d="m326 260.5c6.3 3.7 3.6 13.4-3.7 13.3-24.9-.1-47.6 20.2-47.5 47.5 0 7.4-9.6 10.1-13.3 3.8-18.9-31.6 4.5-71.2 40.5-71.2 8.7 0 16.9 2.4 24 6.6z"
              fill="#cc3b4d" data-original="#CC3B4D" class="active-path" style="fill:#2B0F88" data-old_color="#cc3b4d"/>
        <path d="m182.2 305.6c-4.3 2.1-7.8 5.6-9.9 9.9-2.9 6.1-12.6 3.6-11.7-3.8 1.1-9.3 8.7-16.9 18.2-17.8 6.9-.8 9.6 8.7 3.4 11.7z"
              fill="#cc3b4d" data-original="#CC3B4D" class="active-path" style="fill:#2B0F88" data-old_color="#cc3b4d"/>
    </g>
</svg>
